<svg version="1.1" xmlns="http://www.w3.org/2000/svg" xmlns:xlink="http://www.w3.org/1999/xlink" width="500" height="500"><defs><clipPath id="clip-1"><rect x="9.3464" y="4.26928" transform="scale(11.71158,11.71158)" width="24" height="24"></rect></clipPath></defs><g data-paper-data="{&quot;description&quot;:&quot;Logo for LEEDANBI\n=================\n\nThis logo was generated by MarkMaker at http://emblemmatic.org/markmaker/ and may be composed of elements designed by others.\n\nThe font is Squada One designed by Joe Prince and released under the OFL license via Google Fonts: https://www.google.com/fonts/specimen/Squada%20One. The font includes this copyright statement: Copyright (c) 2011, Admix Designs (http://www.admixdesigns.com joe@admixdesigns.com) with Reserved Font Name Squada.\n\nThe symbol is 'triangle' designed by Icons8 and released into the public domain at the Noun Project: https://thenounproject.com/term/triangle/61464.\n\nMarkMaker uses semantic data from the Princeton University WordNet database http://wordnet.princeton.edu and font descriptions from Google Fonts https://www.google.com/fonts.&quot;}" fill="#68685f" fill-rule="nonzero" stroke="none" stroke-width="1" stroke-linecap="butt" stroke-linejoin="miter" stroke-miterlimit="10" stroke-dasharray="" stroke-dashoffset="0" font-family="none" font-weight="none" font-size="none" text-anchor="none" style="mix-blend-mode: normal"><g data-paper-data="{&quot;elementType&quot;:&quot;logo&quot;}"><g data-paper-data="{&quot;elementType&quot;:&quot;text&quot;}"><g data-paper-data="{&quot;baseline&quot;:67.5,&quot;elementType&quot;:&quot;row&quot;}"><g data-paper-data="{&quot;baselineProportion&quot;:0.9854014598540146,&quot;fontSize&quot;:100,&quot;baseline&quot;:67.5,&quot;elementType&quot;:&quot;word&quot;}"><path d="M87.7741,448.99644h-13.44774v-64.9305h13.44774z" data-paper-data="{&quot;elementType&quot;:&quot;letter&quot;,&quot;baseline&quot;:64.7,&quot;baselineProportion&quot;:1,&quot;fontSize&quot;:100}"></path><path d="M126.91304,399.01902c8.29612,0 12.44418,4.41568 12.44418,13.24703v15.85629h-22.78087v10.23634c0,0.53523 0.18399,1.00356 0.55196,1.40499c0.36797,0.40143 0.81958,0.60214 1.35481,0.60214h5.51959c0.53523,0 0.98684,-0.20071 1.35481,-0.60214c0.36797,-0.40143 0.55196,-0.86975 0.55196,-1.40499v-5.41924h13.44774v3.81354c0,8.83135 -4.14806,13.24703 -12.44418,13.24703h-11.34026c-8.29612,0 -12.44418,-4.41568 -12.44418,-13.24703v-24.48693c0,-8.83135 4.14806,-13.24703 12.44418,-13.24703h11.34026M116.57635,419.29098h9.33313v-9.03206c0,-0.53523 -0.18399,-1.00356 -0.55196,-1.40499c-0.36797,-0.40143 -0.81958,-0.60214 -1.35481,-0.60214h-5.51959c-0.53523,0 -0.98684,0.20071 -1.35481,0.60214c-0.36797,0.40143 -0.55196,0.86975 -0.55196,1.40499z" data-paper-data="{&quot;elementType&quot;:&quot;letter&quot;,&quot;baseline&quot;:49.800000000000004,&quot;baselineProportion&quot;:0.9803149606299213,&quot;fontSize&quot;:100}"></path><path d="M176.89046,399.01902c8.29612,0 12.44418,4.41568 12.44418,13.24703v15.85629h-22.78087v10.23634c0,0.53523 0.18399,1.00356 0.55196,1.40499c0.36797,0.40143 0.81958,0.60214 1.35481,0.60214h5.51959c0.53523,0 0.98684,-0.20071 1.35481,-0.60214c0.36797,-0.40143 0.55196,-0.86975 0.55196,-1.40499v-5.41924h13.44774v3.81354c0,8.83135 -4.14806,13.24703 -12.44418,13.24703h-11.34026c-8.29612,0 -12.44418,-4.41568 -12.44418,-13.24703v-24.48693c0,-8.83135 4.14806,-13.24703 12.44418,-13.24703h11.34026M166.55377,419.29098h9.33313v-9.03206c0,-0.53523 -0.18399,-1.00356 -0.55196,-1.40499c-0.36797,-0.40143 -0.81958,-0.60214 -1.35481,-0.60214h-5.51959c-0.53523,0 -0.98684,0.20071 -1.35481,0.60214c-0.36797,0.40143 -0.55196,0.86975 -0.55196,1.40499z" data-paper-data="{&quot;elementType&quot;:&quot;letter&quot;,&quot;baseline&quot;:49.800000000000004,&quot;baselineProportion&quot;:0.9803149606299213,&quot;fontSize&quot;:100}"></path><path d="M217.6351,399.01902c3.41211,0 6.15518,0.80285 8.22921,2.40855v-17.36163h13.44774v64.9305h-11.34026v-3.61283c-2.07403,3.07759 -5.51959,4.61639 -10.3367,4.61639h-2.10748c-8.29612,0 -12.44418,-4.41568 -12.44418,-13.24703v-24.48693c0,-8.83135 4.14806,-13.24703 12.44418,-13.24703h2.10748M225.86432,438.35867v-27.69833c0,-0.53523 -0.18399,-1.00356 -0.55196,-1.40499c-0.36797,-0.40143 -0.81958,-0.60214 -1.35481,-0.60214h-5.51959c-0.53523,0 -0.98684,0.20071 -1.35481,0.60214c-0.36797,0.40143 -0.55196,0.86975 -0.55196,1.40499v27.69833c0,0.53523 0.18399,1.00356 0.55196,1.40499c0.36797,0.40143 0.81958,0.60214 1.35481,0.60214h5.51959c0.53523,0 0.98684,-0.20071 1.35481,-0.60214c0.36797,-0.40143 0.55196,-0.86975 0.55196,-1.40499z" data-paper-data="{&quot;elementType&quot;:&quot;letter&quot;,&quot;baseline&quot;:64.7,&quot;baselineProportion&quot;:0.984779299847793,&quot;fontSize&quot;:100}"></path><path d="M279.65528,400.02258h11.34026v48.97386h-11.34026v-3.61283c-2.07403,3.07759 -5.51959,4.61639 -10.3367,4.61639h-2.10748c-8.29612,0 -12.44418,-4.41568 -12.44418,-13.24703v-24.48693c0,-8.83135 4.14806,-13.24703 12.44418,-13.24703h2.10748c4.8171,0 8.26267,1.5388 10.3367,4.61639v-3.61283M277.54779,438.35867v-27.69833c0,-0.53523 -0.18399,-1.00356 -0.55196,-1.40499c-0.36797,-0.40143 -0.81958,-0.60214 -1.35481,-0.60214h-5.51959c-0.53523,0 -0.98684,0.20071 -1.35481,0.60214c-0.36797,0.40143 -0.55196,0.86975 -0.55196,1.40499v27.69833c0,0.53523 0.18399,1.00356 0.55196,1.40499c0.36797,0.40143 0.81958,0.60214 1.35481,0.60214h5.51959c0.53523,0 0.98684,-0.20071 1.35481,-0.60214c0.36797,-0.40143 0.55196,-0.86975 0.55196,-1.40499z" data-paper-data="{&quot;elementType&quot;:&quot;letter&quot;,&quot;baseline&quot;:49.800000000000004,&quot;baselineProportion&quot;:0.9803149606299213,&quot;fontSize&quot;:100}"></path><path d="M319.89814,448.99644h-13.44774v-48.97386h12.24346v2.50891c2.07403,-2.34165 5.21853,-3.51247 9.43349,-3.51247h2.10748c8.29612,0 12.44418,4.41568 12.44418,13.24703v36.73039h-13.44774v-38.33609c0,-0.53523 -0.18399,-1.00356 -0.55196,-1.40499c-0.36797,-0.40143 -0.81958,-0.60214 -1.35481,-0.60214h-5.51959c-0.53523,0 -0.98684,0.20071 -1.35481,0.60214c-0.36797,0.40143 -0.55196,0.86975 -0.55196,1.40499z" data-paper-data="{&quot;elementType&quot;:&quot;letter&quot;,&quot;baseline&quot;:49.800000000000004,&quot;baselineProportion&quot;:1,&quot;fontSize&quot;:100}"></path><path d="M379.81083,399.01902h2.10748c8.29612,0 12.44418,4.41568 12.44418,13.24703v24.48693c0,8.83135 -4.14806,13.24703 -12.44418,13.24703h-2.10748c-4.8171,0 -8.26267,-1.5388 -10.3367,-4.61639v3.61283h-11.34026v-64.9305h13.44774v17.36163c2.14093,-1.6057 4.884,-2.40855 8.22921,-2.40855M371.58161,410.66034v27.69833c0,0.53523 0.18399,1.00356 0.55196,1.40499c0.36797,0.40143 0.81958,0.60214 1.35481,0.60214h5.51959c0.53523,0 0.98684,-0.20071 1.35481,-0.60214c0.36797,-0.40143 0.55196,-0.86975 0.55196,-1.40499v-27.69833c0,-0.53523 -0.18399,-1.00356 -0.55196,-1.40499c-0.36797,-0.40143 -0.81958,-0.60214 -1.35481,-0.60214h-5.51959c-0.53523,0 -0.98684,0.20071 -1.35481,0.60214c-0.36797,0.40143 -0.55196,0.86975 -0.55196,1.40499z" data-paper-data="{&quot;elementType&quot;:&quot;letter&quot;,&quot;baseline&quot;:64.7,&quot;baselineProportion&quot;:0.984779299847793,&quot;fontSize&quot;:100}"></path><path d="M411.62376,448.99644v-48.97386h13.44774v48.97386zM423.51598,393.90085c0,0 -0.35961,0.35125 -1.07883,1.05374c-0.71922,0.70249 -2.08239,1.05374 -4.08952,1.05374c-2.00713,0 -3.74663,-0.71922 -5.21853,-2.15766c-1.47189,-1.43844 -2.20784,-3.17795 -2.20784,-5.21853c0,-2.04058 0.73595,-3.78009 2.20784,-5.21853c1.47189,-1.43844 3.2114,-2.15766 5.21853,-2.15766c2.00713,0 3.72991,0.71922 5.16835,2.15766c1.43844,1.43844 2.15766,3.19467 2.15766,5.2687c0,2.07403 -0.71922,3.81354 -2.15766,5.21853" data-paper-data="{&quot;elementType&quot;:&quot;letter&quot;,&quot;baseline&quot;:67.5,&quot;baselineProportion&quot;:1,&quot;fontSize&quot;:100}"></path></g></g></g></g><g clip-path="url(#clip-1)" data-paper-data="{&quot;elementType&quot;:&quot;emblem&quot;}"><g><path d="M250,141.35029l74.95409,119.45808h-149.90817l74.95409,-119.45808M250,96.8463l-117.11576,187.38522h234.23152l-117.11576,-187.38522z"></path></g></g></g></svg>