<svg id="Layer_1" data-name="Layer 1" xmlns="http://www.w3.org/2000/svg" xmlns:xlink="http://www.w3.org/1999/xlink" viewBox="0 0 351.35 353.15">
  <defs>
    <style>
      .cls-1 {
        fill: none;
      }

      .cls-2 {
        fill: #68685f;
      }

      .cls-3 {
        clip-path: url(#clip-path);
      }
    </style>
    <clipPath id="clip-path" transform="translate(-74.33 -96.85)">
      <rect class="cls-1" x="109.46" y="50" width="281.08" height="281.08"/>
    </clipPath>
  </defs>
  <g>
    <g>
      <path class="cls-2" d="M87.77,449H74.33V384.07H87.77Z" transform="translate(-74.33 -96.85)"/>
      <path class="cls-2" d="M126.91,399q12.45,0,12.45,13.25v15.85H116.58v10.24a2,2,0,0,0,.55,1.4,1.75,1.75,0,0,0,1.35.61H124a1.75,1.75,0,0,0,1.36-.61,2,2,0,0,0,.55-1.4v-5.42h13.45v3.81q0,13.25-12.45,13.25H115.57q-12.43,0-12.44-13.25V412.27q0-13.26,12.44-13.25h11.34m-10.33,20.27h9.33v-9a2,2,0,0,0-.55-1.41,1.78,1.78,0,0,0-1.36-.6h-5.52a1.77,1.77,0,0,0-1.35.6,2,2,0,0,0-.55,1.41Z" transform="translate(-74.33 -96.85)"/>
      <path class="cls-2" d="M176.89,399q12.45,0,12.44,13.25v15.85H166.55v10.24a2,2,0,0,0,.56,1.4,1.73,1.73,0,0,0,1.35.61H174a1.72,1.72,0,0,0,1.35-.61,2,2,0,0,0,.56-1.4v-5.42h13.44v3.81q0,13.25-12.44,13.25H165.55q-12.45,0-12.44-13.25V412.27q0-13.26,12.44-13.25h11.34m-10.34,20.27h9.34v-9a2,2,0,0,0-.56-1.41,1.74,1.74,0,0,0-1.35-.6h-5.52a1.76,1.76,0,0,0-1.35.6,2,2,0,0,0-.56,1.41Z" transform="translate(-74.33 -96.85)"/>
      <path class="cls-2" d="M217.64,399a13,13,0,0,1,8.22,2.41V384.07h13.45V449H228v-3.62q-3.1,4.62-10.33,4.62h-2.11q-12.45,0-12.45-13.25V412.27q0-13.26,12.45-13.25h2.11m8.22,39.34v-27.7a2,2,0,0,0-.55-1.4,1.75,1.75,0,0,0-1.35-.61h-5.52a1.75,1.75,0,0,0-1.36.61,2,2,0,0,0-.55,1.4v27.7a2,2,0,0,0,.55,1.4,1.75,1.75,0,0,0,1.36.61H224a1.75,1.75,0,0,0,1.35-.61A2,2,0,0,0,225.86,438.36Z" transform="translate(-74.33 -96.85)"/>
      <path class="cls-2" d="M279.66,400H291v49H279.66v-3.62Q276.54,450,269.32,450h-2.11q-12.45,0-12.44-13.25V412.27q0-13.26,12.44-13.25h2.11q7.23,0,10.34,4.62V400m-2.11,38.34v-27.7a2,2,0,0,0-.55-1.4,1.75,1.75,0,0,0-1.36-.61h-5.52a1.73,1.73,0,0,0-1.35.61,2,2,0,0,0-.56,1.4v27.7a2,2,0,0,0,.56,1.4,1.73,1.73,0,0,0,1.35.61h5.52a1.75,1.75,0,0,0,1.36-.61A2,2,0,0,0,277.55,438.36Z" transform="translate(-74.33 -96.85)"/>
      <path class="cls-2" d="M319.9,449H306.45V400h12.24v2.51q3.12-3.51,9.44-3.51h2.1q12.45,0,12.45,13.25V449H329.23V410.66a2,2,0,0,0-.55-1.4,1.75,1.75,0,0,0-1.36-.61H321.8a1.75,1.75,0,0,0-1.35.61,2,2,0,0,0-.55,1.4Z" transform="translate(-74.33 -96.85)"/>
      <path class="cls-2" d="M379.81,399h2.11q12.43,0,12.44,13.25v24.48q0,13.25-12.44,13.25h-2.11q-7.23,0-10.34-4.62V449H358.13V384.07h13.45v17.36a13.33,13.33,0,0,1,8.23-2.41m-8.23,11.64v27.7a2,2,0,0,0,.55,1.4,1.75,1.75,0,0,0,1.36.61H379a1.75,1.75,0,0,0,1.35-.61,2,2,0,0,0,.55-1.4v-27.7a2,2,0,0,0-.55-1.4,1.75,1.75,0,0,0-1.35-.61h-5.52a1.75,1.75,0,0,0-1.36.61A2,2,0,0,0,371.58,410.66Z" transform="translate(-74.33 -96.85)"/>
      <path class="cls-2" d="M411.62,449V400h13.45v49Zm11.9-55.1L422.44,395c-.72.71-2.09,1.06-4.09,1.06a7.21,7.21,0,0,1-5.22-2.16,7.27,7.27,0,0,1,0-10.44,7.24,7.24,0,0,1,5.22-2.15,7.09,7.09,0,0,1,5.17,2.15,7.21,7.21,0,0,1,2.15,5.27,7,7,0,0,1-2.15,5.22" transform="translate(-74.33 -96.85)"/>
    </g>
    <g class="cls-3">
      <path class="cls-2" d="M250,141.35,325,260.81H175.05L250,141.35m0-44.5L132.88,284.23H367.12L250,96.85Z" transform="translate(-74.33 -96.85)"/>
    </g>
  </g>
</svg>
