<svg id="Layer_1" data-name="Layer 1" xmlns="http://www.w3.org/2000/svg" xmlns:xlink="http://www.w3.org/1999/xlink" viewBox="0 0 1000 574.79">
  <defs>
    <style>
      .cls-1, .cls-2 {
        fill: #005974;
      }

      .cls-1 {
        fill-rule: evenodd;
      }

      .cls-2 {
        stroke: #f7f7f7;
        stroke-miterlimit: 10;
        stroke-width: 8px;
      }
    </style>
  </defs>
  <path class="cls-1" d="M793.29,409.91c0,31.91,40.61,88.68,108.2,180C917.3,611.22,952,680.79,1000,716.57H729.75C725,701,705.81,648.64,689.2,629l-4.1,3.08-4.29-32.93c-4.87,0-55.7-31.3-55.7-4.12-7.47,0-6.43-4.18-6.43-10.29,10.48,0,19.28-15.08,19.28-23.68-11.43,6-17.14,10.12-17.14,12-7.68,21.45-26.25,32.25-55.88,32.25-4.74,0-5.5.91-6.25,6.18-1.69,11.82,19.67,25.8,26,35.74L578.2,660c-3.57,0-13.44-10.46-18.44-14.4-2.23,13.83-9.17,13.17-12.17,21.92H539.2c10.74-57.91-14.78-82.82,35.56-82.82,0-5.32-7-10.3-20.89-14.59-31.43,14.59-48.92,21.79-52,21.79v-7.2q8.83,0,43.92-35c31.78-16.47,51.42-30,58.74-41.17,7.32-23.33,12.14-35,14.64-35,6.25,0,16.07,7.89,29.28,23.85,25.18,37.23,47.93,61.61,58.56,79.6,28.37,48,44.28,74.62,58.75,74.62,56.16,36.71,59.43,4,84.31-19.93C882.06,601,811.75,536,795,643.84c-19.06,0,.45-60.09.45-69.93C686.6,512,778,444.55,729,411.8q-4.83,0-6.43,13.38h-3.21c0-4.81,1.07-10.64,3.21-17.84,0-5.49-8.39-18.36-25-38.77-37.92-5.79-17.64-45.29-40.7-45.29-4.11,2.57-.49,13.14-.49,15.37-1.43,0-7.73-9.2-7.73-11.26-2.85,0,1.55,15,1.55,21.17L640.1,330.48c-2.85,0-6.23,36.6-6.23,40.89l-2.34-37.46c0-6.52,2.15-14.92,6.43-25h-2.14l4.28-9.44V283.65l-12.85-1.54H614.39L610.11,279c0-5,.71-8.92,2.14-12-1.07-15.27-3.21-23-6.25-23a11.94,11.94,0,0,0-4.19.77,18,18,0,0,0-4.2,2.32c-2.5-2.06-29.52,6.35-36.78,6.35-1.88,10.54-8.54,13.7-10,24.66,2.36,7.53,9.68,17.36,9.68,25.12a59.56,59.56,0,0,0-6.1-3.64,20.15,20.15,0,0,1-2.14,8.58,106.22,106.22,0,0,1,5.36,15.95c20.43,72,43.16,30.87-52.49,110.82l2.14,5.49s-18.39,18.3-22.5,20.76c-5.71,37.06-12.85,55.58-12.85,55.58s-9.64-56.42-9.64-63.64c18.69-19,82.48-87.21,82.48-103.44,0-7.21-7.5-19.9-22.49-38.43V290.51c0-11.84-4.11-17.67-12.5-17.67-12.32,3.6-18.57,11.5-18.57,23.5q-56,52.76-69.63,52.67v24.7c-13.81,23,1.91,54,2.3,75.24.09,5-16.51,13.13-17,19-7.32-6.18-16.77-11.61-23.19-11.61-171.43,0,20.73,182.52,113.46,260.19H430.5c-13.31-12.35-43-60.06-73.1-59.37-5.78.13,12.16-22,7.69-25.51C327.34,601.92,290.47,583.9,265.6,572L203.42,607.8c-9.24,5.32,6.09,43.35.09,53.43-10.44,17.54-21.8,36.4-33.88,55.34H0c98.51-94.5,197.09-215.17,215-235,14.28-35.86,30.88-53.7,50.17-53.36,24.75.88,50.59,3.09,75.16,3.09,25.18,0,42.5-17.5,52.31-52.49q0-47.87,39.64-64.33Q485,232.71,497.09,232.7c25.71,0,43.92-6.86,54.28-20.59,21.6-47,39.1-70.33,52.31-70.33,5.89,3.94,10,6,12.5,6,16.6,28.48,31.06,51.64,43,69.48s22.14,30.71,30,38.6c25.18,4.63,37.67,19,37.67,43.4v51.81c6,40.16,43.61,11.64,66.42,58.84Z" transform="translate(0 -141.78)"/>
  <circle class="cls-2" cx="489.13" cy="175.34" r="15"/>
  <circle class="cls-2" cx="711.2" cy="254.94" r="15"/>
  <circle class="cls-2" cx="335.02" cy="387.21" r="15"/>
  <circle class="cls-2" cx="778.98" cy="475.79" r="15"/>
  <image width="344" height="336" transform="translate(863.36 452.41) scale(0.14)" xlink:href="../../fullpage/img/ps.png"/>
  <image width="354" height="337" transform="translate(808.16 452.34) scale(0.14)" xlink:href="../../fullpage/img/ai.png"/>
  <image width="265" height="286" transform="translate(809.22 220.81) scale(0.26)" xlink:href="../../fullpage/img/css.png"/>
  <image width="264" height="295" transform="translate(241.95 348.22) scale(0.26)" xlink:href="../../fullpage/img/figma.png"/>
  <image width="269" height="286" transform="translate(738.11 220.81) scale(0.26)" xlink:href="../../fullpage/img/html.png"/>
  <image width="486" height="132" transform="translate(187.75 120.34) scale(0.61)" xlink:href="../../fullpage/img/jq.png"/>
  <image width="860" height="830" transform="translate(378.27 45.98) scale(0.1)" xlink:href="js.png"/>
</svg>
